<svg width="53" height="14" viewBox="0 0 53 14" fill="none" xmlns="http://www.w3.org/2000/svg">
<path d="M0.504 11V10.748C0.936 10.748 1.188 10.668 1.26 10.508V4.472C1.188 4.312 0.936 4.232 0.504 4.232V3.98H3.12V4.232C2.688 4.232 2.436 4.312 2.364 4.472V10.592H5.1C5.3 10.504 5.48 10.252 5.64 9.836H5.88L5.592 11H0.504ZM6.44541 11V10.748C6.87741 10.748 7.12941 10.668 7.20141 10.508V4.472C7.12941 4.312 6.87741 4.232 6.44541 4.232V3.98H9.06141V4.232C8.62941 4.232 8.37741 4.312 8.30541 4.472V10.508C8.37741 10.668 8.62941 10.748 9.06141 10.748V11H6.44541ZM14.9505 11H9.7665L13.5825 4.34H10.6665C10.5065 4.412 10.4265 4.664 10.4265 5.096H10.1745V3.98H15.0105L11.1945 10.64H14.4585C14.7065 10.536 14.8905 10.272 15.0105 9.848H15.2625L14.9505 11ZM20.9505 11H15.7665L19.5825 4.34H16.6665C16.5065 4.412 16.4265 4.664 16.4265 5.096H16.1745V3.98H21.0105L17.1945 10.64H20.4585C20.7065 10.536 20.8905 10.272 21.0105 9.848H21.2625L20.9505 11ZM22.0665 11V10.748C22.4985 10.748 22.7505 10.668 22.8225 10.508V4.472C22.7505 4.312 22.4985 4.232 22.0665 4.232V3.98H24.6825V4.232C24.2505 4.232 23.9985 4.312 23.9265 4.472V10.508C23.9985 10.668 24.2505 10.748 24.6825 10.748V11H22.0665ZM25.6876 11V10.748C26.1196 10.748 26.3716 10.668 26.4436 10.508V4.472C26.3716 4.312 26.1196 4.232 25.6876 4.232V3.98H30.5236V5.144H30.2716C30.2716 4.712 30.1916 4.46 30.0316 4.388H27.5476V7.148H29.2276C29.3876 7.076 29.4676 6.824 29.4676 6.392H29.7196V8.312H29.4676C29.4676 7.88 29.3876 7.628 29.2276 7.556H27.5476V10.592H30.2836C30.4836 10.504 30.6636 10.252 30.8236 9.836H31.0636L30.7756 11H25.6876ZM34.3644 3.98H40.3884V5.144H40.1364C40.1364 4.712 40.0564 4.46 39.8964 4.388H37.9284V10.508C38.0004 10.668 38.2524 10.748 38.6844 10.748V11H36.0684V10.748C36.5004 10.748 36.7524 10.668 36.8244 10.508V4.388H34.8564C34.6964 4.46 34.6164 4.712 34.6164 5.144H34.3644V3.98ZM43.5935 11.12C43.2015 11.12 42.8015 11.06 42.3935 10.94C41.9855 10.82 41.7735 10.76 41.7575 10.76C41.7095 10.76 41.6535 10.784 41.5895 10.832C41.5255 10.88 41.4935 10.936 41.4935 11H41.2175V9.332H41.4815C41.5695 9.812 41.8055 10.164 42.1895 10.388C42.5815 10.604 43.0255 10.712 43.5215 10.712C43.9455 10.712 44.2935 10.616 44.5655 10.424C44.8375 10.232 44.9735 9.944 44.9735 9.56C44.9735 9.384 44.9335 9.224 44.8535 9.08C44.7815 8.936 44.6655 8.804 44.5055 8.684C44.3535 8.556 44.2055 8.452 44.0615 8.372C43.9175 8.284 43.7295 8.18 43.4975 8.06C43.2735 7.932 43.1015 7.832 42.9815 7.76C42.7015 7.584 42.4935 7.452 42.3575 7.364C42.2215 7.268 42.0455 7.128 41.8295 6.944C41.6215 6.76 41.4695 6.568 41.3735 6.368C41.2775 6.168 41.2295 5.952 41.2295 5.72C41.2295 5.248 41.4455 4.82 41.8775 4.436C42.3095 4.052 42.7935 3.86 43.3295 3.86C43.5615 3.86 43.8495 3.92 44.1935 4.04C44.5375 4.16 44.7335 4.22 44.7815 4.22C44.8775 4.22 44.9255 4.14 44.9255 3.98H45.2015L45.3215 5.504H45.0575C45.0095 5.152 44.8335 4.86 44.5295 4.628C44.2255 4.388 43.8295 4.268 43.3415 4.268C42.9735 4.268 42.6775 4.388 42.4535 4.628C42.2375 4.86 42.1295 5.096 42.1295 5.336C42.1295 5.488 42.1655 5.632 42.2375 5.768C42.3095 5.896 42.4215 6.016 42.5735 6.128C42.7255 6.24 42.8695 6.34 43.0055 6.428C43.1415 6.508 43.3215 6.608 43.5455 6.728C43.7775 6.848 43.9535 6.944 44.0735 7.016C44.4015 7.216 44.6375 7.364 44.7815 7.46C44.9255 7.556 45.1095 7.704 45.3335 7.904C45.5655 8.104 45.7255 8.312 45.8135 8.528C45.9095 8.736 45.9575 8.968 45.9575 9.224C45.9575 9.816 45.7175 10.28 45.2375 10.616C44.7575 10.952 44.2095 11.12 43.5935 11.12ZM46.8399 11V10.748C47.2719 10.748 47.5239 10.668 47.5959 10.508V4.472C47.5239 4.312 47.2719 4.232 46.8399 4.232V3.98H51.6759V5.144H51.4239C51.4239 4.712 51.3439 4.46 51.1839 4.388H48.6999V7.148H50.3799C50.5399 7.076 50.6199 6.824 50.6199 6.392H50.8719V8.312H50.6199C50.6199 7.88 50.5399 7.628 50.3799 7.556H48.6999V10.592H51.4359C51.6359 10.504 51.8159 10.252 51.9759 9.836H52.2159L51.9279 11H46.8399Z" fill="black"/>
</svg>
